<svg id="Layer_1" data-name="Layer 1" xmlns="http://www.w3.org/2000/svg" viewBox="0 0 1068.45 944.51"><defs><style>.cls-1{fill:#fff;}</style></defs><title>SUMPAH MATI LOGO-01</title><path class="cls-1" d="M11.11,576.47S40.88,597,39.73,621.94c0,0-16.62,2.31-28.62-20.08S11.11,576.47,11.11,576.47Z" transform="translate(-5.77 -67.75)"/><path class="cls-1" d="M696.64,691S639.86,657.26,560,747.74c0,0-17.08,47.54,94.64,66,0,0,39.24,10.62-64.63,73.4H534.14s-38.78,12.93-55.86,62.78h150.5s138.49-87.25,143.57-138.49C772.35,811.44,697.64,749.57,696.64,691Z" transform="translate(-5.77 -67.75)"/><path class="cls-1" d="M1045.63,717.27s-81.71,18-59.55-22.16,16.62-116.33,16.62-116.33,69.25-11.08,65.09-91.41c-3.61-69.77-16.62-18.33-20-3.62,9.54-48.68-32.64-97.47-32.64-97.47-8.31,37.39-49.86,51.24-49.86,51.24C937.61,379.35,864.21,317,864.21,317c-264.52-157.88-411.32,13.85-411.32,13.85S415.5,390.43,342.1,414s-18-22.15-18-22.15S430.73,339.19,505.52,246.4,570.61,96.83,570.61,96.83C436.27,103.75,245.16,360,245.16,360,250.7,311.49,356,206.24,356,206.24,414.12,121.76,397.5,67.75,397.5,67.75c-173.12,37.39-225.28,309-225.28,309C77.58,398.12,45.27,455.06,45.27,455.06S8.8,525,8.11,553.39,42,570.7,42,570.7s21.46-10.39,23.31-2.31S42,596.32,42,596.32c27,58.63,80.78,30,80.78,30-15.46,35.77-72.93,2.07-72.93,2.07-4.16,66,127.41,29.32,127.41,29.32-2.77,49.85,66.47,98.33,66.47,98.33-40.16,131.56-101.1,156.49-101.1,156.49-80.32,8.31-63.7,72-63.7,72H187c26.31-18,155.11-198,155.11-198L403,800.36S354.57,945.78,300.55,948.55s-55.39,63.7-55.39,63.7H368.41C418.27,908.38,480.59,851.6,480.59,851.6c78.94-66.47,62.32-112.17,62.32-112.17,76.17-108,153.73-72,153.73-72-9.7-116.33,45.7-144,45.7-144s-54,102.48-12.47,199.43S850.36,825.29,850.36,825.29s56.78,9.7,98.33-13.85,37.39,4.16,37.39,4.16,1.39,16.62-1.38,73.4-30.47,34.62-30.47,34.62c-47.09,2.77-67.86,76.17-67.86,76.17s98.33,5.54,141.26,0S1068,958.24,1068,958.24C1090.31,674.34,1045.63,717.27,1045.63,717.27ZM170.83,511.38c-12.46,5.08-38.77-3.69-38.77-3.69,10.15-27.24,52.16-40.17,52.16-40.17S183.3,506.3,170.83,511.38Z" transform="translate(-5.77 -67.75)"/></svg>